Frozen (2010) 720p X264 MKV DTS NLSub


PLOT

Three skiers are stranded on a chairlift and forced to make
life-or-death choices that prove more perilous than 
staying put and freezing to death 


MM:    http://www.moviemeter.nl/film/62267

IMDB:    http://www.imdb.com/title/tt1323045/

INFO

Source..: Frozen 2010 BluRay 720p DTS x264-CHD 
Audio...: DTS English 
Subs....: Custom NL (selectable)
Format..: MKV 

Thanks To Jogabonito 

Enjoy This Nice release


PLAYER INFO


      Complete name : Frozen.2010.720p.X264.MKV.DTS.NLSub
      Format : Matroska
      File size : 5.50 GiB
      Duration : 1h 33mn
      Overall bit rate : 8 439 Kbps
      Encoded date : UTC 2010-09-13 09:16:28
      Writing application : mkvmerge v3.3.0 ('Language') built on Mar 24 2010 14:59:24
      Writing library : libebml v0.8.0 + libmatroska v0.9.0
   Video #1
      ID : 1
      Format : AVC
      Format/Info : Advanced Video Codec
      Format profile : High@L4.1
      Format settings, CABAC : Yes
      Format settings, ReFrames : 8 frames
      Muxing mode : Container profile=Unknown@4.1
      Codec ID : V_MPEG4/ISO/AVC
      Duration : 1h 33mn
      Bit rate : 6 762 Kbps
      Nominal bit rate : 6 926 Kbps
      Width : 1 280 pixels
      Height : 534 pixels
      Display aspect ratio : 2.35:1
      Frame rate : 23.976 fps
      Resolution : 24 bits
      Colorimetry : 4:2:0
      Scan type : Progressive
      Bits/(Pixel*Frame) : 0.413
      Stream size : 4.40 GiB (80%)
      Writing library : x264 core 102 r1666 d058f37
      Encoding settings : cabac=1 / ref=8 / deblock=1:-3:-3 / analyse=0x3:0x113 / me=umh / subme=10 / psy=1 / psy_rd=1.05:0.00 / mixed_ref=1 / me_range=32 / chroma_me=1 / trellis=2 / 8x8dct=1 / cqm=2 / deadzone=21,11 / fast_pskip=0 / chroma_qp_offset=-1 / threads=12 / sliced_threads=0 / nr=0 / decimate=1 / interlaced=0 / constrained_intra=0 / bframes=6 / b_pyramid=2 / b_adapt=2 / b_bias=0 / direct=3 / weightb=1 / open_gop=0 / weightp=2 / keyint=250 / keyint_min=25 / scenecut=40 / intra_refresh=0 / rc_lookahead=50 / rc=2pass / mbtree=1 / bitrate=6926 / ratetol=1.0 / qcomp=0.60 / qpmin=10 / qpmax=51 / qpstep=4 / cplxblur=20.0 / qblur=0.5 / vbv_maxrate=50000 / vbv_bufsize=50000 / ip_ratio=1.40 / aq=1:1.00 / nal_hrd=none
      Language : English
   Audio #2
      ID : 2
      Format : DTS
      Format/Info : Digital Theater Systems
      Codec ID : A_DTS
      Duration : 1h 33mn
      Bit rate mode : Constant
      Bit rate : 1 510 Kbps
      Channel(s) : 6 channels
      Channel positions : Front: L C R, Surround: L R, LFE
      Sampling rate : 48.0 KHz
      Resolution : 24 bits
      Stream size : 1 008 MiB (18%)
      Title : DTS 5.1 1536k
      Language : English
   Text #3
      ID : 3
      Format : UTF-8
      Codec ID : S_TEXT/UTF8
      Codec ID/Info : UTF-8 Plain Text
      Language : Dutch

